<svg width="24" height="24" xmlns="http://www.w3.org/2000/svg">

    <g>
        <title>background</title>
        <rect fill="none" id="canvas_background" height="26" width="26" y="-1" x="-1"/>
    </g>
    <g>
        <title>Layer 1</title>
        <path stroke="null" id="svg_1"
              d="m11.990573,0.111982c-6.621747,0 -11.990573,5.368826 -11.990573,11.990573c0,5.298569 3.435299,9.792107 8.200334,11.377274c0.599388,0.109789 0.818216,-0.260537 0.818216,-0.576695c0,-0.285432 -0.010984,-1.230954 -0.016838,-2.23212c-3.334293,0.724516 -4.039067,-1.413927 -4.039067,-1.413927c-0.545946,-1.384654 -1.331235,-1.753504 -1.331235,-1.753504c-1.089714,-0.743556 0.082669,-0.728919 0.082669,-0.728919c1.203882,0.083419 1.837696,1.235357 1.837696,1.235357c1.069971,1.832544 2.807363,1.302687 3.489444,0.995311c0.108992,-0.77283 0.419295,-1.302687 0.76112,-1.60128c-2.66172,-0.302973 -5.461753,-1.331961 -5.461753,-5.926505c0,-1.310017 0.467656,-2.378489 1.233156,-3.217923c-0.122224,-0.304448 -0.534986,-1.524442 0.118547,-3.174739c0,0 1.005569,-0.322012 3.297689,1.229502c0.95578,-0.267118 1.981114,-0.398851 3.000571,-0.403253c1.01873,0.004403 2.044767,0.137587 3.002046,0.404705c2.287764,-1.552967 3.294785,-1.229502 3.294785,-1.229502c0.655734,1.651772 0.242973,2.87029 0.120023,3.173287c0.768427,0.839434 1.23243,1.90793 1.23243,3.217923c0,4.606254 -2.804436,5.620581 -5.475664,5.917723c0.431801,0.371778 0.813813,1.100697 0.813813,2.218959c0,1.602756 -0.016112,2.895185 -0.016112,3.290382c0,0.319085 0.218079,0.692315 0.825523,0.57522c4.761405,-1.588095 8.193754,-6.081633 8.193754,-11.377274c0,-6.621747 -5.368826,-11.990573 -11.990573,-11.990573z"/>
    </g>
</svg>